custom-analysis
version=1
nRows=14
nColumns=42
inDegrees=no

This file contains tibia displacement and acting force.

Units are S.I. units (seconds, meters, Newtons, ...)
Angles are in degrees.

endheader
time	APT	SIT	knee_angle	aACL_R_force	pACL_R_force	aPCL_R_force	pPCL_R_force	aMCL_R_force	mMCL_R_force	pMCL_R_force	aLCL_R_force	mLCL_R_force	pLCL_R_force	aACL_R_length	pACL_R_length	aPCL_R_length	pPCL_R_length	aMCL_R_length	mMCL_R_length	pMCL_R_length	aLCL_R_length	mLCL_R_length	pLCL_R_length	aACL_R_strain	pACL_R_strain	aPCL_R_strain	pPCL_R_strain	aMCL_R_strain	mMCL_R_strain	pMCL_R_strain	aLCL_R_strain	mLCL_R_strain	pLCL_R_strain	femur_lat_meniscii_force_r	femur_lat_meniscii_torque_r	femur_med_meniscii_force_r	femur_med_meniscii_torque_r	femur_lat_tibia_force_r	femur_lat_tibia_torque_r	femur_med_tibia_force_r	femur_med_tibia_torque_r
      0.49440286	      0.00564498	      0.00091782	     89.99998384	     43.26614467	     13.04068487	    831.52387767	    362.96350262	     40.03931181	      0.22221817	      0.00000000	      0.00000000	      0.00000000	      0.00000000	      0.03336740	      0.02630794	      0.03641978	      0.03281985	      0.06272743	      0.06052210	      0.05696770	      0.04876176	      0.04308244	      0.03783671	      0.07617670	      0.03743243	      0.17123093	      0.09080254	      0.08100416	      0.01218533	     -0.06192031	     -0.12889969	     -0.23502285	     -0.27713492	    208.03357008	     84.65580227	     82.73446446	     27.49673766	     49.54621872	      1.78158497	    643.05193692	     11.59184306
      0.49581226	      0.00564473	      0.00091848	     89.99998384	     43.63063728	     13.48715467	    832.09203609	    364.55386416	     41.26414003	      1.49650579	      0.00000000	      0.00000000	      0.00000000	      0.00000000	      0.03336676	      0.02630733	      0.03641933	      0.03281939	      0.06272644	      0.06052113	      0.05696676	      0.04876167	      0.04308237	      0.03783666	      0.07615633	      0.03740829	      0.17121657	      0.09078716	      0.08098719	      0.01216898	     -0.06193587	     -0.12890131	     -0.23502421	     -0.27713584	    201.10043771	     81.83098837	     79.92021615	     26.44323030	     49.00775161	      1.76245859	    634.95192984	     11.44959707
      0.49722167	      0.00564431	      0.00091770	     89.99998384	     43.22611586	     12.99990598	    831.56510987	    362.89428455	     39.95665554	      0.14118599	      0.00000000	      0.00000000	      0.00000000	      0.00000000	      0.03336695	      0.02630765	      0.03642033	      0.03282034	      0.06272685	      0.06052159	      0.05696727	      0.04876301	      0.04308373	      0.03783807	      0.07616217	      0.03742113	      0.17124871	      0.09081901	      0.08099428	      0.01217670	     -0.06192752	     -0.12887737	     -0.23499994	     -0.27710889	    208.60160285	     84.88700179	     82.94788586	     27.57755712	     49.20178231	      1.76923880	    644.12334757	     11.61043059
      0.49863107	      0.00564410	      0.00091848	     89.99998384	     43.64874871	     13.51829803	    832.21428808	    364.73640273	     41.37624087	      1.61857250	      0.00000000	      0.00000000	      0.00000000	      0.00000000	      0.03336627	      0.02630697	      0.03641974	      0.03281975	      0.06272580	      0.06052053	      0.05696624	      0.04876274	      0.04308348	      0.03783784	      0.07614028	      0.03739435	      0.17122990	      0.09079922	      0.08097605	      0.01215903	     -0.06194444	     -0.12888218	     -0.23500451	     -0.27711335	    200.55893132	     81.61014647	     79.67901031	     26.34085920	     48.63974097	      1.74928733	    634.63793807	     11.44362603
      0.49988209	      0.00564376	      0.00091784	     89.99998384	     43.31147589	     13.11310482	    831.77508676	    363.35611143	     40.28761928	      0.49064768	      0.00000000	      0.00000000	      0.00000000	      0.00000000	      0.03336642	      0.02630724	      0.03642057	      0.03282054	      0.06272615	      0.06052093	      0.05696667	      0.04876383	      0.04308459	      0.03783899	      0.07614505	      0.03740493	      0.17125648	      0.09082565	      0.08098213	      0.01216566	     -0.06193729	     -0.12886272	     -0.23498478	     -0.27709141	    206.81702458	     84.15970659	     82.19105005	     27.28237456	     48.81027759	      1.75525355	    642.27417262	     11.57744886
      0.50113310	      0.00564353	      0.00091812	     89.99998384	     43.46756983	     13.30677636	    832.03692181	    364.06286987	     40.82654286	      1.05272783	      0.00000000	      0.00000000	      0.00000000	      0.00000000	      0.03336605	      0.02630691	      0.03642045	      0.03282041	      0.06272563	      0.06052042	      0.05696620	      0.04876395	      0.04308472	      0.03783915	      0.07613337	      0.03739200	      0.17125269	      0.09082132	      0.08097322	      0.01215724	     -0.06194511	     -0.12886051	     -0.23498235	     -0.27708831	    203.80129940	     82.93094770	     80.95468437	     26.81987458	     48.53576042	      1.74548804	    638.75202792	     11.51536444
      0.50267483	      0.00564318	      0.00091780	     89.99998384	     43.30973132	     13.11949142	    831.85520597	    363.43988474	     40.33002408	      0.53942215	      0.00000000	      0.00000000	      0.00000000	      0.00000000	      0.03336598	      0.02630694	      0.03642096	      0.03282090	      0.06272564	      0.06052047	      0.05696629	      0.04876473	      0.04308553	      0.03783999	      0.07613110	      0.03739315	      0.17126910	      0.09083747	      0.08097342	      0.01215807	     -0.06194364	     -0.12884653	     -0.23496807	     -0.27707222	    206.71924149	     84.11988593	     82.10940526	     27.25256533	     48.53140189	      1.74526588	    642.33869434	     11.57806932
      0.50421656	      0.00564294	      0.00091832	     89.99998384	     43.58871422	     13.46258787	    832.29585887	    364.67326627	     41.28060964	      1.52902352	      0.00000000	      0.00000000	      0.00000000	      0.00000000	      0.03336546	      0.02630644	      0.03642063	      0.03282056	      0.06272489	      0.06051973	      0.05696557	      0.04876464	      0.04308544	      0.03783994	      0.07611435	      0.03737347	      0.17125823	      0.09082602	      0.08096044	      0.01214566	     -0.06195537	     -0.12884824	     -0.23496954	     -0.27707328	    201.39360122	     81.95001914	     79.92876387	     26.43652247	     48.14620705	      1.73158633	    635.98716975	     11.46627929
      0.50549469	      0.00564264	      0.00091775	     89.99998384	     43.29313561	     13.10659891	    831.90497907	    363.45171745	     40.32311643	      0.53598065	      0.00000000	      0.00000000	      0.00000000	      0.00000000	      0.03336559	      0.02630668	      0.03642134	      0.03282125	      0.06272523	      0.06052011	      0.05696599	      0.04876553	      0.04308636	      0.03784089	      0.07611850	      0.03738266	      0.17128125	      0.09084911	      0.08096634	      0.01215206	     -0.06194851	     -0.12883223	     -0.23495329	     -0.27705515	    206.91730945	     84.20046083	     82.14657776	     27.26728585	     48.31976416	      1.73768678	    642.67608025	     11.58376026
      0.50677283	      0.00564245	      0.00091804	     89.99998384	     43.45255677	     13.30323685	    832.16397447	    364.16656485	     40.87417851	      1.10982123	      0.00000000	      0.00000000	      0.00000000	      0.00000000	      0.03336525	      0.02630636	      0.03642118	      0.03282108	      0.06272477	      0.06051966	      0.05696557	      0.04876553	      0.04308637	      0.03784091	      0.07610743	      0.03737002	      0.17127599	      0.09084357	      0.08095837	      0.01214454	     -0.06195552	     -0.12883232	     -0.23495318	     -0.27705461	    203.86389199	     82.95636675	     80.89218522	     26.79102497	     48.09017014	      1.72952780	    639.00631223	     11.51923945
      0.50831777	      0.00564214	      0.00091770	     89.99998384	     43.27225062	     13.08821759	    831.94395553	    363.45199402	     40.31063847	      0.52648661	      0.00000000	      0.00000000	      0.00000000	      0.00000000	      0.03336522	      0.02630642	      0.03642167	      0.03282157	      0.06272490	      0.06051983	      0.05696577	      0.04876619	      0.04308705	      0.03784163	      0.07610658	      0.03737241	      0.17129195	      0.09085963	      0.08096056	      0.01214729	     -0.06195222	     -0.12882051	     -0.23494112	     -0.27704095	    207.22566752	     84.32627788	     82.19836361	     27.28066272	     48.16923542	      1.73229737	    642.96816864	     11.58868892
      0.50986271	      0.00564196	      0.00091832	     89.99998384	     43.59907469	     13.48983646	    832.44680434	    364.89174773	     41.42433145	      1.68539688	      0.00000000	      0.00000000	      0.00000000	      0.00000000	      0.03336467	      0.02630585	      0.03642119	      0.03282109	      0.06272413	      0.06051907	      0.05696503	      0.04876584	      0.04308670	      0.03784131	      0.07608861	      0.03735028	      0.17127643	      0.09084386	      0.08094739	      0.01213465	     -0.06196425	     -0.12882680	     -0.23494720	     -0.27704704	    200.94866372	     81.76877880	     79.63418539	     26.32063853	     47.80581083	      1.71940455	    635.39311203	     11.45609990
      0.51107513	      0.00564168	      0.00091772	     89.99998384	     43.28135187	     13.10729485	    832.02016819	    363.58224587	     40.39930308	      0.62212433	      0.00000000	      0.00000000	      0.00000000	      0.00000000	      0.03336483	      0.02630611	      0.03642190	      0.03282179	      0.06272458	      0.06051956	      0.05696556	      0.04876663	      0.04308751	      0.03784215	      0.07609385	      0.03736045	      0.17129929	      0.09086715	      0.08095512	      0.01214283	     -0.06195568	     -0.12881266	     -0.23493284	     -0.27703098	    206.93266638	     84.20679967	     81.99832256	     27.20648608	     48.05440732	      1.72819221	    642.46178842	     11.58014278
      0.51228754	      0.00564151	      0.00091795	     89.99998384	     43.40297636	     13.25824814	    832.21570804	    364.12586335	     40.81942702	      1.05948322	      0.00000000	      0.00000000	      0.00000000	      0.00000000	      0.03336454	      0.02630584	      0.03642177	      0.03282167	      0.06272426	      0.06051925	      0.05696527	      0.04876656	      0.04308745	      0.03784211	      0.07608454	      0.03734981	      0.17129508	      0.09086304	      0.08094951	      0.01213765	     -0.06196042	     -0.12881393	     -0.23493394	     -0.27703175	    204.61798851	     83.26372058	     81.03500320	     26.84631506	     47.91483262	      1.72323448	    639.60825457	     11.53002716
